<svg width="541" height="104" viewBox="0 0 541 104" fill="none" xmlns="http://www.w3.org/2000/svg">
<path fill-rule="evenodd" clip-rule="evenodd" d="M33.8916 12.8687C33.8916 11.8901 33.8916 11.0023 33.898 10.1943L61.5043 17.589C66.5975 18.9533 69.1438 19.6353 71.0889 21.1822C72.8004 22.5429 74.1912 24.3553 75.063 26.3597C76.054 28.6384 76.054 31.2739 76.054 36.5448V70.2786L59.1087 65.7397V44.3877C59.1087 39.1168 59.1087 36.4813 58.1177 34.2026C57.2459 32.1981 55.8544 30.3857 54.1435 29.0251C52.1982 27.4782 49.6517 26.7961 44.5588 25.4319L33.8916 22.5745V12.8687ZM16.952 18.037C16.9798 14.4927 17.1297 12.4807 17.9368 11.0575C18.8086 9.5202 20.1998 8.45307 21.9108 8.0091C23.8561 7.50439 26.4025 8.18647 31.4955 9.5507L33.898 10.1943C33.9258 6.64983 34.0757 4.63791 34.8828 3.21464C35.7546 1.67731 37.1458 0.610171 38.8568 0.166201C40.8021 -0.33853 43.3485 0.343582 48.4414 1.70779L78.4503 9.74614C83.5435 11.1104 86.0898 11.7924 88.0348 13.3393C89.7464 14.7 91.1372 16.5124 92.009 18.5168C93 20.7955 93 23.431 93 28.7019V59.7597C93 65.0307 93 67.666 92.009 69.414C91.1372 70.9512 89.7464 72.0184 88.0348 72.462C86.0898 72.9671 83.5435 72.2851 78.4503 70.9204L76.054 70.2786V91.1313C76.054 96.4023 76.054 99.0375 75.063 100.786C74.1912 102.323 72.8004 103.39 71.0889 103.834C69.1438 104.339 66.5975 103.657 61.5043 102.292L31.4955 94.254C26.4025 92.8899 23.8561 92.2073 21.9108 90.6607C20.1998 89.2998 18.8086 87.4878 17.9368 85.4831C17.2282 83.8543 17.0262 82.0429 16.9686 79.2163L44.5588 86.6062C49.6517 87.9709 52.1982 88.6529 54.1435 88.1478C55.8544 87.7042 57.2459 86.637 58.1177 85.0998C59.1087 83.3517 59.1087 80.7165 59.1087 75.4455V65.7397L48.4414 62.8824C43.3486 61.5184 40.802 60.8357 38.8568 59.2892C37.1458 57.9285 35.7546 56.1161 34.8828 54.1117C33.8916 51.833 33.8916 49.1975 33.8916 43.9266V22.5745L16.952 18.037ZM16.952 18.037L14.5498 17.3936C9.45686 16.0294 6.91044 15.3473 4.96517 15.852C3.25413 16.296 1.86293 17.3631 0.991152 18.9004C4.48915e-07 20.6481 0 23.2836 0 28.5545V59.6122C0 64.8833 4.48915e-07 67.5185 0.991152 69.7973C1.86293 71.802 3.25413 73.614 4.96517 74.9749C6.91044 76.5215 9.45686 77.2042 14.5498 78.5682L16.9686 79.2163C16.9457 78.0888 16.9457 76.8007 16.9457 75.298V20.7116C16.9457 19.733 16.9457 18.8451 16.952 18.037Z" fill="white"/>
<path d="M482.052 87.482V4.22339H496.769V35.3641H497.379C498.138 33.8463 499.208 32.2337 500.59 30.5263C501.973 28.7917 503.843 27.3147 506.201 26.095C508.558 24.8483 511.567 24.225 515.226 24.225C520.05 24.225 524.4 25.4581 528.275 27.9245C532.178 30.3637 535.268 33.9818 537.544 38.779C539.848 43.549 541 49.4031 541 56.3413C541 63.1983 539.875 69.0253 537.626 73.8224C535.376 78.6195 532.314 82.2784 528.438 84.7989C524.562 87.3194 520.172 88.5797 515.266 88.5797C511.689 88.5797 508.721 87.9834 506.363 86.7909C504.005 85.5984 502.108 84.162 500.672 82.4816C499.262 80.7742 498.165 79.1616 497.379 77.6439H496.525V87.482H482.052ZM496.484 56.26C496.484 60.2983 497.053 63.8352 498.192 66.8706C499.357 69.9061 501.024 72.2776 503.192 73.985C505.387 75.6654 508.043 76.5055 511.16 76.5055C514.413 76.5055 517.136 75.6383 519.332 73.9037C521.527 72.1421 523.18 69.7435 524.291 66.708C525.43 63.6455 525.999 60.1628 525.999 56.26C525.999 52.3844 525.443 48.9424 524.332 45.934C523.221 42.9256 521.568 40.5677 519.372 38.8603C517.177 37.1528 514.44 36.2991 511.16 36.2991C508.016 36.2991 505.347 37.1257 503.151 38.779C500.956 40.4322 499.289 42.7495 498.151 45.7307C497.04 48.712 496.484 52.2218 496.484 56.26Z" fill="white"/>
<path d="M437.068 88.7422C433.111 88.7422 429.547 88.0375 426.376 86.6282C423.232 85.1917 420.739 83.0778 418.896 80.2862C417.08 77.4947 416.172 74.0527 416.172 69.9602C416.172 66.4369 416.823 63.5234 418.124 61.2197C419.425 58.9159 421.2 57.073 423.449 55.6908C425.699 54.3085 428.233 53.2651 431.051 52.5604C433.897 51.8287 436.838 51.3002 439.873 50.9749C443.532 50.5955 446.5 50.2567 448.776 49.9586C451.053 49.6334 452.706 49.1455 453.736 48.4951C454.793 47.8175 455.322 46.7741 455.322 45.3647V45.1208C455.322 42.0582 454.414 39.6868 452.598 38.0064C450.782 36.3261 448.167 35.4859 444.752 35.4859C441.147 35.4859 438.288 36.2719 436.174 37.8438C434.087 39.4158 432.678 41.2723 431.946 43.4134L418.205 41.462C419.289 37.6676 421.078 34.4967 423.571 31.949C426.065 29.3743 429.114 27.45 432.718 26.1762C436.323 24.8753 440.307 24.2249 444.67 24.2249C447.679 24.2249 450.674 24.5772 453.655 25.2818C456.636 25.9865 459.36 27.1519 461.826 28.7781C464.293 30.3771 466.271 32.5588 467.762 35.3233C469.279 38.0877 470.038 41.5433 470.038 45.69V87.4819H455.891V78.904H455.403C454.509 80.6385 453.248 82.2647 451.622 83.7824C450.023 85.2731 448.004 86.4791 445.565 87.4006C443.153 88.295 440.321 88.7422 437.068 88.7422ZM440.89 77.9283C443.844 77.9283 446.405 77.3456 448.573 76.1802C450.741 74.9877 452.408 73.4157 453.574 71.4644C454.766 69.513 455.362 67.3855 455.362 65.0818V57.7234C454.902 58.1029 454.116 58.4552 453.004 58.7804C451.92 59.1057 450.701 59.3902 449.346 59.6342C447.99 59.8781 446.649 60.0949 445.321 60.2846C443.993 60.4743 442.841 60.637 441.865 60.7725C439.67 61.0706 437.705 61.5584 435.971 62.236C434.236 62.9136 432.867 63.8621 431.865 65.0818C430.862 66.2743 430.36 67.8191 430.36 69.7163C430.36 72.4265 431.35 74.4727 433.328 75.855C435.307 77.2372 437.827 77.9283 440.89 77.9283Z" fill="white"/>
<path d="M410.226 25.0382V36.4212H374.329V25.0382H410.226ZM383.191 10.0776H397.908V68.7002C397.908 70.6787 398.206 72.1964 398.802 73.2534C399.425 74.2833 400.239 74.9879 401.241 75.3674C402.244 75.7468 403.355 75.9365 404.575 75.9365C405.496 75.9365 406.337 75.8688 407.095 75.7333C407.881 75.5977 408.478 75.4758 408.884 75.3674L411.364 86.8723C410.578 87.1434 409.453 87.4415 407.99 87.7667C406.553 88.092 404.792 88.2817 402.705 88.3359C399.019 88.4443 395.699 87.8887 392.745 86.6691C389.791 85.4224 387.446 83.4981 385.712 80.8963C384.004 78.2944 383.164 75.0421 383.191 71.1394V10.0776Z" fill="white"/>
<path d="M340.067 88.7015C333.969 88.7015 328.684 87.3599 324.212 84.6768C319.74 81.9937 316.271 78.24 313.805 73.4158C311.365 68.5915 310.146 62.9542 310.146 56.5038C310.146 50.0535 311.365 44.4026 313.805 39.5513C316.271 34.6999 319.74 30.9327 324.212 28.2496C328.684 25.5664 333.969 24.2249 340.067 24.2249C346.165 24.2249 351.45 25.5664 355.922 28.2496C360.394 30.9327 363.849 34.6999 366.289 39.5513C368.755 44.4026 369.988 50.0535 369.988 56.5038C369.988 62.9542 368.755 68.5915 366.289 73.4158C363.849 78.24 360.394 81.9937 355.922 84.6768C351.45 87.3599 346.165 88.7015 340.067 88.7015ZM340.148 76.912C343.455 76.912 346.219 76.004 348.442 74.1882C350.664 72.3452 352.317 69.8789 353.401 66.7892C354.513 63.6995 355.068 60.2575 355.068 56.4632C355.068 52.6417 354.513 49.1862 353.401 46.0965C352.317 42.9797 350.664 40.4999 348.442 38.6569C346.219 36.8139 343.455 35.8924 340.148 35.8924C336.76 35.8924 333.942 36.8139 331.692 38.6569C329.47 40.4999 327.803 42.9797 326.692 46.0965C325.608 49.1862 325.066 52.6417 325.066 56.4632C325.066 60.2575 325.608 63.6995 326.692 66.7892C327.803 69.8789 329.47 72.3452 331.692 74.1882C333.942 76.004 336.76 76.912 340.148 76.912Z" fill="white"/>
<path d="M304.626 25.0382V36.4212H268.729V25.0382H304.626ZM277.592 10.0776H292.308V68.7002C292.308 70.6787 292.606 72.1964 293.203 73.2534C293.826 74.2833 294.639 74.9879 295.642 75.3674C296.645 75.7468 297.756 75.9365 298.976 75.9365C299.897 75.9365 300.737 75.8688 301.496 75.7333C302.282 75.5977 302.878 75.4758 303.285 75.3674L305.765 86.8723C304.979 87.1434 303.854 87.4415 302.39 87.7667C300.954 88.092 299.192 88.2817 297.105 88.3359C293.42 88.4443 290.1 87.8887 287.145 86.6691C284.191 85.4224 281.847 83.4981 280.112 80.8963C278.405 78.2944 277.565 75.0421 277.592 71.1394V10.0776Z" fill="white"/>
<path d="M247.029 61.2196V25.0378H261.746V87.4818H247.477V76.3834H246.826C245.417 79.8796 243.1 82.7389 239.874 84.9613C236.676 87.1837 232.733 88.2949 228.044 88.2949C223.952 88.2949 220.334 87.387 217.19 85.5711C214.073 83.7281 211.634 81.0585 209.872 77.5623C208.11 74.039 207.229 69.7839 207.229 64.7971V25.0378H221.946V62.5205C221.946 66.4774 223.03 69.6213 225.198 71.9521C227.367 74.2829 230.212 75.4484 233.736 75.4484C235.904 75.4484 238.004 74.9198 240.037 73.8629C242.07 72.8059 243.736 71.2339 245.037 69.147C246.365 67.033 247.029 64.3906 247.029 61.2196Z" fill="white"/>
<path d="M162.896 88.7422C158.939 88.7422 155.375 88.0375 152.204 86.6282C149.06 85.1917 146.567 83.0778 144.724 80.2862C142.908 77.4947 142 74.0527 142 69.9602C142 66.4369 142.65 63.5234 143.951 61.2197C145.252 58.9159 147.028 57.073 149.277 55.6908C151.527 54.3085 154.061 53.2651 156.879 52.5604C159.725 51.8287 162.666 51.3002 165.701 50.9749C169.36 50.5955 172.328 50.2567 174.604 49.9586C176.881 49.6334 178.534 49.1455 179.564 48.4951C180.621 47.8175 181.149 46.7741 181.149 45.3647V45.1208C181.149 42.0582 180.242 39.6868 178.426 38.0064C176.61 36.3261 173.994 35.4859 170.58 35.4859C166.975 35.4859 164.116 36.2719 162.002 37.8438C159.915 39.4158 158.505 41.2723 157.774 43.4134L144.033 41.462C145.117 37.6676 146.906 34.4967 149.399 31.949C151.892 29.3743 154.941 27.45 158.546 26.1762C162.151 24.8753 166.135 24.2249 170.498 24.2249C173.507 24.2249 176.501 24.5772 179.483 25.2818C182.464 25.9865 185.188 27.1519 187.654 28.7781C190.12 30.3771 192.099 32.5588 193.589 35.3233C195.107 38.0877 195.866 41.5433 195.866 45.69V87.4819H181.719V78.904H181.231C180.336 80.6385 179.076 82.2647 177.45 83.7824C175.851 85.2731 173.832 86.4791 171.393 87.4006C168.98 88.295 166.148 88.7422 162.896 88.7422ZM166.717 77.9283C169.672 77.9283 172.233 77.3456 174.401 76.1802C176.569 74.9877 178.236 73.4157 179.401 71.4644C180.594 69.513 181.19 67.3855 181.19 65.0818V57.7234C180.729 58.1029 179.943 58.4552 178.832 58.7804C177.748 59.1057 176.528 59.3902 175.173 59.6342C173.818 59.8781 172.477 60.0949 171.149 60.2846C169.821 60.4743 168.669 60.637 167.693 60.7725C165.498 61.0706 163.533 61.5584 161.798 62.236C160.064 62.9136 158.695 63.8621 157.692 65.0818C156.69 66.2743 156.188 67.8191 156.188 69.7163C156.188 72.4265 157.177 74.4727 159.156 75.855C161.134 77.2372 163.655 77.9283 166.717 77.9283Z" fill="white"/>
</svg>
