<svg width="90" height="90" viewBox="0 0 90 90" fill="none" xmlns="http://www.w3.org/2000/svg">
<path d="M37.9688 23.2031C37.9688 20.2497 37.9687 18.773 38.5239 17.7937C39.0123 16.9323 39.7915 16.3344 40.75 16.0856C41.8396 15.8028 43.266 16.185 46.1187 16.9494L62.9281 21.4535C65.7809 22.2179 67.2073 22.6001 68.2969 23.4668C69.2553 24.2292 70.0346 25.2447 70.5229 26.3678C71.0781 27.6447 71.0781 29.1214 71.0781 32.0748V49.4771C71.0781 52.4305 71.0781 53.9072 70.5229 54.8865C70.0346 55.7479 69.2553 56.3458 68.2969 56.5946C67.2073 56.8774 65.7809 56.4952 62.9281 55.7308L46.1187 51.2268C43.266 50.4624 41.8396 50.0802 40.75 49.2134C39.7915 48.451 39.0123 47.4355 38.5239 46.3124C37.9687 45.0356 37.9688 43.5589 37.9688 40.6055V23.2031Z" fill="white"/>
<path d="M28.4766 27.5977C28.4766 24.6443 28.4766 23.1676 29.0317 22.1883C29.5201 21.3269 30.2993 20.7289 31.2578 20.4802C32.3474 20.1973 33.7738 20.5795 36.6266 21.3439L53.4359 25.848C56.2887 26.6124 57.7151 26.9946 58.8047 27.8613C59.7631 28.6237 60.5424 29.6393 61.0307 30.7624C61.5859 32.0392 61.5859 33.5159 61.5859 36.4693V67.0552C61.5859 70.0086 61.5859 71.4853 61.0307 72.4646C60.5424 73.326 59.7631 73.924 58.8047 74.1727C57.7151 74.4555 56.2887 74.0733 53.4359 73.3089L36.6266 68.8049C33.7738 68.0405 32.3474 67.6583 31.2578 66.7915C30.2993 66.0292 29.5201 65.0136 29.0317 63.8905C28.4766 62.6137 28.4766 61.137 28.4766 58.1836V27.5977Z" fill="white"/>
<path d="M18.9844 31.9922C18.9844 29.0388 18.9844 27.5621 19.5396 26.5828C20.0279 25.7214 20.8072 25.1235 21.7656 24.8747C22.8552 24.5919 24.2816 24.9741 27.1344 25.7385L43.9437 30.2425C46.7965 31.0069 48.2229 31.3891 49.3125 32.2559C50.271 33.0183 51.0502 34.0338 51.5386 35.1569C52.0937 36.4337 52.0937 37.9104 52.0937 40.8638V58.2662C52.0937 61.2196 52.0937 62.6963 51.5386 63.6756C51.0502 64.537 50.271 65.1349 49.3125 65.3837C48.2229 65.6665 46.7965 65.2843 43.9437 64.5199L27.1344 60.0158C24.2816 59.2514 22.8552 58.8692 21.7656 58.0025C20.8072 57.2401 20.0279 56.2246 19.5396 55.1014C18.9844 53.8246 18.9844 52.3479 18.9844 49.3945V31.9922Z" fill="white"/>
</svg>
